<?xml version="1.0" encoding="UTF-8" ?>
<!DOCTYPE svg PUBLIC "-//W3C//DTD SVG 1.1//EN" "http://www.w3.org/Graphics/SVG/1.1/DTD/svg11.dtd">
<svg width="140pt" height="140pt" viewBox="0 0 140 140" version="1.1" xmlns="http://www.w3.org/2000/svg">
<g id="#5d5c5fff">
<path fill="#5d5c5f" opacity="1.00" d=" M 0.00 0.00 L 36.54 0.00 C 24.57 7.74 12.07 14.63 0.00 22.22 L 0.00 0.00 Z" />
</g>
<g id="#525153ff">
<path fill="#525153" opacity="1.00" d=" M 36.54 0.00 L 89.65 0.00 C 81.76 4.69 74.19 9.93 66.01 14.13 C 60.20 17.31 53.02 14.89 47.24 18.25 C 41.94 20.84 40.43 27.04 39.26 32.30 C 38.90 35.49 35.74 36.84 33.35 38.35 C 22.13 44.80 11.29 51.87 0.00 58.20 L 0.00 22.22 C 12.07 14.63 24.57 7.74 36.54 0.00 Z" />
</g>
<g id="#464646ff">
<path fill="#464646" opacity="1.00" d=" M 89.65 0.00 L 140.00 0.00 L 140.00 0.96 C 134.18 3.58 128.03 5.45 122.34 8.37 C 114.21 12.66 106.19 17.15 98.19 21.66 C 96.04 20.57 93.79 19.66 91.39 19.34 C 85.97 18.44 80.46 18.90 75.00 18.81 C 67.34 18.88 59.68 18.63 52.03 18.86 C 47.30 18.84 43.40 22.82 42.89 27.40 C 40.51 37.39 42.33 47.76 41.48 57.89 C 41.13 60.01 39.06 61.21 37.57 62.53 C 24.96 71.71 12.67 81.35 0.00 90.46 L 0.00 58.20 C 11.29 51.87 22.13 44.80 33.35 38.35 C 35.74 36.84 38.90 35.49 39.26 32.30 C 40.43 27.04 41.94 20.84 47.24 18.25 C 53.02 14.89 60.20 17.31 66.01 14.13 C 74.19 9.93 81.76 4.69 89.65 0.00 Z" />
</g>
<g id="#383838ff">
<path fill="#383838" opacity="1.00" d=" M 122.34 8.37 C 128.03 5.45 134.18 3.58 140.00 0.96 L 140.00 140.00 L 0.00 140.00 L 0.00 90.46 C 12.67 81.35 24.96 71.71 37.57 62.53 C 39.06 61.21 41.13 60.01 41.48 57.89 C 42.33 47.76 40.51 37.39 42.89 27.40 C 43.16 42.30 42.88 57.20 43.05 72.09 C 42.87 76.88 47.15 81.29 51.96 81.14 C 63.97 81.22 75.99 81.22 88.00 81.15 C 93.26 81.25 97.31 76.13 96.97 71.07 C 96.97 56.68 97.11 42.27 96.90 27.88 C 96.92 24.18 94.32 21.25 91.39 19.34 C 93.79 19.66 96.04 20.57 98.19 21.66 C 106.19 17.15 114.21 12.66 122.34 8.37 M 82.30 88.31 C 80.72 88.72 80.45 91.41 82.05 91.97 C 83.57 92.89 86.10 92.09 85.80 90.02 C 85.78 88.25 83.67 87.96 82.30 88.31 M 29.14 89.36 C 28.26 94.81 28.86 100.54 28.91 106.09 C 29.63 105.98 31.07 105.76 31.79 105.65 C 32.65 103.83 32.13 101.70 32.29 99.76 C 34.79 99.54 37.64 100.35 39.88 98.89 C 43.52 96.73 42.55 89.90 38.18 89.32 C 35.20 88.84 32.10 88.73 29.14 89.36 M 67.43 92.97 C 67.47 96.84 67.26 100.72 67.58 104.58 C 67.73 106.16 69.77 106.21 70.96 105.86 C 72.30 103.96 71.63 101.43 71.89 99.25 C 74.17 99.29 76.45 99.19 78.71 98.91 C 78.73 98.23 78.75 96.88 78.77 96.21 C 76.47 95.90 74.16 95.77 71.85 95.79 C 71.80 94.99 71.69 93.39 71.64 92.60 C 74.14 92.55 76.66 92.61 79.13 92.20 C 79.16 91.63 79.22 90.51 79.25 89.95 C 76.32 88.03 72.26 89.16 68.92 89.19 C 67.06 89.48 67.60 91.63 67.43 92.97 M 44.19 94.19 C 43.32 97.41 43.79 100.83 43.81 104.13 C 43.54 106.09 46.42 106.73 47.33 105.16 C 47.69 102.82 47.26 100.41 47.83 98.10 C 49.04 97.20 50.58 97.01 51.98 96.55 C 51.96 95.83 51.93 94.41 51.91 93.70 C 50.32 93.95 48.78 94.43 47.50 95.43 C 46.72 94.08 45.62 93.67 44.19 94.19 M 57.06 94.12 C 52.17 94.95 51.21 102.34 55.14 104.94 C 58.91 107.76 65.61 105.12 65.05 99.99 C 65.59 95.69 60.87 92.89 57.06 94.12 M 81.78 93.80 C 81.14 97.36 80.88 101.04 81.48 104.62 C 81.66 106.54 84.32 106.35 85.30 105.16 C 85.79 101.95 85.77 98.64 85.40 95.42 C 85.23 93.65 82.93 94.25 81.78 93.80 M 88.30 95.21 C 86.76 96.41 86.70 99.41 88.47 100.43 C 90.45 101.19 92.83 101.19 94.37 102.85 C 91.95 103.10 89.39 102.10 87.07 102.93 C 86.25 105.42 89.11 105.73 90.84 105.97 C 93.54 106.38 97.73 105.47 97.53 101.98 C 97.76 97.81 91.93 99.83 90.58 96.81 C 92.76 96.45 97.72 98.85 97.10 94.97 C 94.43 93.56 90.75 93.17 88.30 95.21 M 98.22 100.04 C 97.88 105.34 104.97 107.84 108.69 104.71 C 108.58 103.87 108.43 103.04 108.26 102.21 C 106.95 102.40 105.64 102.75 104.31 102.67 C 102.22 102.06 102.01 98.85 103.51 97.51 C 105.02 96.61 106.83 97.51 108.45 97.55 C 108.49 96.95 108.58 95.76 108.63 95.16 C 104.97 91.91 97.59 94.66 98.22 100.04 M 46.50 111.62 C 46.09 115.42 46.30 119.25 46.25 123.07 C 46.59 122.76 47.28 122.15 47.62 121.84 C 48.87 122.29 50.20 123.24 51.53 122.45 C 53.65 121.52 53.75 118.81 54.85 117.03 C 55.43 119.46 57.46 121.86 56.40 124.46 C 55.47 124.45 53.60 124.43 52.67 124.42 C 53.91 124.93 55.59 126.11 56.80 124.84 C 58.67 121.63 60.19 118.19 61.27 114.63 C 59.40 116.51 58.69 119.12 57.61 121.47 C 56.53 119.30 55.57 117.06 54.75 114.77 C 54.23 115.80 53.68 116.80 53.12 117.81 C 52.92 114.59 49.23 114.96 47.28 116.18 C 47.32 114.62 47.20 113.04 46.50 111.62 M 64.19 115.64 C 66.34 117.08 64.98 119.97 65.98 122.00 C 66.90 122.81 68.42 123.19 69.17 121.91 C 65.60 122.58 66.71 118.53 66.38 116.35 C 67.14 116.29 68.65 116.16 69.40 116.10 C 68.22 115.46 67.04 114.82 65.88 114.16 C 65.31 114.65 64.75 115.14 64.19 115.64 M 77.78 116.13 C 78.60 117.84 78.45 119.76 78.70 121.60 C 79.15 122.78 80.80 122.54 81.77 123.01 C 81.78 122.71 81.80 122.10 81.81 121.79 C 78.43 122.51 79.86 118.42 79.38 116.42 C 80.37 116.26 81.37 116.11 82.37 115.95 C 81.15 115.33 79.93 114.71 78.70 114.09 C 78.40 114.76 77.07 115.26 77.78 116.13 M 71.07 121.95 C 72.81 123.47 75.24 122.59 76.70 121.15 C 74.26 121.80 71.31 122.42 70.22 119.36 C 72.48 119.26 74.75 119.25 77.02 119.22 C 76.53 117.27 75.37 114.95 72.97 115.22 C 69.64 115.22 68.32 120.15 71.07 121.95 M 83.44 115.56 C 83.50 117.96 83.51 120.37 83.51 122.77 C 83.74 122.77 84.21 122.76 84.44 122.75 C 84.49 120.83 84.59 118.92 84.82 117.01 C 85.82 116.46 86.81 115.90 87.80 115.32 C 86.34 115.41 84.89 115.49 83.44 115.56 M 87.47 116.60 C 89.57 116.45 92.86 115.14 93.37 118.29 C 91.62 118.48 89.88 118.66 88.13 118.88 C 88.10 119.66 88.02 121.23 87.99 122.01 C 89.43 122.47 90.91 122.80 92.43 122.85 C 91.06 122.03 88.82 121.94 88.78 119.89 C 90.06 119.25 91.51 119.15 92.89 118.86 C 92.77 119.66 92.53 121.25 92.42 122.04 C 92.80 122.30 93.58 122.82 93.97 123.08 C 93.72 120.68 94.79 117.78 93.13 115.75 C 91.25 114.60 89.13 115.51 87.47 116.60 Z" />
<path fill="#383838" opacity="1.00" d=" M 32.25 91.94 C 34.26 92.28 38.05 91.11 38.46 93.94 C 39.26 97.65 34.48 96.86 32.24 97.09 C 32.25 95.37 32.25 93.66 32.25 91.94 Z" />
<path fill="#383838" opacity="1.00" d=" M 57.19 97.21 C 58.77 95.75 61.43 96.90 61.43 99.05 C 62.39 101.49 59.55 104.75 57.21 102.71 C 56.00 101.18 56.06 98.78 57.19 97.21 Z" />
<path fill="#383838" opacity="1.00" d=" M 49.14 116.23 C 50.40 115.82 51.90 116.20 52.36 117.56 C 53.87 119.53 51.58 122.59 49.25 121.71 C 46.65 121.16 46.57 116.76 49.14 116.23 Z" />
<path fill="#383838" opacity="1.00" d=" M 72.19 116.47 C 73.12 115.82 75.49 116.51 74.61 117.91 C 73.46 119.40 69.47 117.80 72.19 116.47 Z" />
</g>
<g id="#ffffffff">
<path fill="#ffffff" opacity="1.00" d=" M 42.89 27.40 C 43.40 22.82 47.30 18.84 52.03 18.86 C 59.68 18.63 67.34 18.88 75.00 18.81 C 80.46 18.90 85.97 18.44 91.39 19.34 C 94.32 21.25 96.92 24.18 96.90 27.88 C 97.11 42.27 96.97 56.68 96.97 71.07 C 97.31 76.13 93.26 81.25 88.00 81.15 C 75.99 81.22 63.97 81.22 51.96 81.14 C 47.15 81.29 42.87 76.88 43.05 72.09 C 42.88 57.20 43.16 42.30 42.89 27.40 M 53.04 31.92 C 52.93 43.61 53.06 55.31 52.98 67.01 C 52.98 68.81 52.91 71.35 55.01 72.06 C 61.47 72.52 67.98 72.10 74.46 72.25 C 77.98 72.18 81.52 72.45 85.03 72.08 C 86.04 71.39 86.84 70.28 86.73 68.99 C 86.86 65.75 86.73 62.51 86.70 59.27 C 86.84 50.16 86.74 41.04 86.74 31.93 C 86.92 30.26 86.03 28.08 84.03 28.27 C 74.67 28.21 65.31 28.21 55.95 28.27 C 53.98 28.07 52.91 30.23 53.04 31.92 Z" />
<path fill="#ffffff" opacity="1.00" d=" M 56.93 32.94 C 60.93 32.61 64.98 32.62 68.98 32.87 C 70.75 33.36 70.49 35.19 69.09 35.87 C 65.72 36.16 62.33 36.04 58.95 35.97 C 57.09 36.61 55.40 34.45 56.93 32.94 Z" />
<path fill="#ffffff" opacity="1.00" d=" M 57.00 38.19 C 63.99 37.85 71.04 37.91 78.03 38.14 C 80.28 38.77 79.03 41.57 76.99 41.22 C 70.31 41.16 63.59 41.56 56.94 40.99 C 56.80 40.52 56.52 39.57 56.38 39.10 L 57.00 38.19 Z" />
<path fill="#ffffff" opacity="1.00" d=" M 57.37 43.43 C 62.83 43.08 68.33 43.15 73.79 43.37 C 75.86 43.72 74.86 46.87 72.99 46.44 C 68.34 46.59 63.69 46.55 59.04 46.48 C 57.24 46.81 55.81 44.72 57.37 43.43 Z" />
<path fill="#ffffff" opacity="1.00" d=" M 29.14 89.36 C 32.10 88.73 35.20 88.84 38.18 89.32 C 42.55 89.90 43.52 96.73 39.88 98.89 C 37.64 100.35 34.79 99.54 32.29 99.76 C 32.13 101.70 32.65 103.83 31.79 105.65 C 31.07 105.76 29.63 105.98 28.91 106.09 C 28.86 100.54 28.26 94.81 29.14 89.36 M 32.25 91.94 C 32.25 93.66 32.25 95.37 32.24 97.09 C 34.48 96.86 39.26 97.65 38.46 93.94 C 38.05 91.11 34.26 92.28 32.25 91.94 Z" />
<path fill="#ffffff" opacity="1.00" d=" M 44.19 94.19 C 45.62 93.67 46.72 94.08 47.50 95.43 C 48.78 94.43 50.32 93.95 51.91 93.70 C 51.93 94.41 51.96 95.83 51.98 96.55 C 50.58 97.01 49.04 97.20 47.83 98.10 C 47.26 100.41 47.69 102.82 47.33 105.16 C 46.42 106.73 43.54 106.09 43.81 104.13 C 43.79 100.83 43.32 97.41 44.19 94.19 Z" />
<path fill="#ffffff" opacity="1.00" d=" M 57.06 94.12 C 60.87 92.89 65.59 95.69 65.05 99.99 C 65.61 105.12 58.91 107.76 55.14 104.94 C 51.21 102.34 52.17 94.95 57.06 94.12 M 57.19 97.21 C 56.06 98.78 56.00 101.18 57.21 102.71 C 59.55 104.75 62.39 101.49 61.43 99.05 C 61.43 96.90 58.77 95.75 57.19 97.21 Z" />
<path fill="#ffffff" opacity="1.00" d=" M 46.50 111.62 C 47.20 113.04 47.32 114.62 47.28 116.18 C 49.23 114.96 52.92 114.59 53.12 117.81 C 53.68 116.80 54.23 115.80 54.75 114.77 C 55.57 117.06 56.53 119.30 57.61 121.47 C 58.69 119.12 59.40 116.51 61.27 114.63 C 60.19 118.19 58.67 121.63 56.80 124.84 C 55.59 126.11 53.91 124.93 52.67 124.42 C 53.60 124.43 55.47 124.45 56.40 124.46 C 57.46 121.86 55.43 119.46 54.85 117.03 C 53.75 118.81 53.65 121.52 51.53 122.45 C 50.20 123.24 48.87 122.29 47.62 121.84 C 47.28 122.15 46.59 122.76 46.25 123.07 C 46.30 119.25 46.09 115.42 46.50 111.62 M 49.14 116.23 C 46.57 116.76 46.65 121.16 49.25 121.71 C 51.58 122.59 53.87 119.53 52.36 117.56 C 51.90 116.20 50.40 115.82 49.14 116.23 Z" />
<path fill="#ffffff" opacity="1.00" d=" M 64.19 115.64 C 64.75 115.14 65.31 114.65 65.88 114.16 C 67.04 114.82 68.22 115.46 69.40 116.10 C 68.65 116.16 67.14 116.29 66.38 116.35 C 66.71 118.53 65.60 122.58 69.17 121.91 C 68.42 123.19 66.90 122.81 65.98 122.00 C 64.98 119.97 66.34 117.08 64.19 115.64 Z" />
<path fill="#ffffff" opacity="1.00" d=" M 77.78 116.13 C 77.07 115.26 78.40 114.76 78.70 114.09 C 79.93 114.71 81.15 115.33 82.37 115.95 C 81.37 116.11 80.37 116.26 79.38 116.42 C 79.86 118.42 78.43 122.51 81.81 121.79 C 81.80 122.10 81.78 122.71 81.77 123.01 C 80.80 122.54 79.15 122.78 78.70 121.60 C 78.45 119.76 78.60 117.84 77.78 116.13 Z" />
<path fill="#ffffff" opacity="1.00" d=" M 71.07 121.95 C 68.32 120.15 69.64 115.22 72.97 115.22 C 75.37 114.95 76.53 117.27 77.02 119.22 C 74.75 119.25 72.48 119.26 70.22 119.36 C 71.31 122.42 74.26 121.80 76.70 121.15 C 75.24 122.59 72.81 123.47 71.07 121.95 M 72.19 116.47 C 69.47 117.80 73.46 119.40 74.61 117.91 C 75.49 116.51 73.12 115.82 72.19 116.47 Z" />
<path fill="#ffffff" opacity="1.00" d=" M 83.44 115.56 C 84.89 115.49 86.34 115.41 87.80 115.32 C 86.81 115.90 85.82 116.46 84.82 117.01 C 84.59 118.92 84.49 120.83 84.44 122.75 C 84.21 122.76 83.74 122.77 83.51 122.77 C 83.51 120.37 83.50 117.96 83.44 115.56 Z" />
<path fill="#ffffff" opacity="1.00" d=" M 87.47 116.60 C 89.13 115.51 91.25 114.60 93.13 115.75 C 94.79 117.78 93.72 120.68 93.97 123.08 C 93.58 122.82 92.80 122.30 92.42 122.04 C 92.53 121.25 92.77 119.66 92.89 118.86 C 91.51 119.15 90.06 119.25 88.78 119.89 C 88.82 121.94 91.06 122.03 92.43 122.85 C 90.91 122.80 89.43 122.47 87.99 122.01 C 88.02 121.23 88.10 119.66 88.13 118.88 C 89.88 118.66 91.62 118.48 93.37 118.29 C 92.86 115.14 89.57 116.45 87.47 116.60 Z" />
</g>
<g id="#0ae178ff">
<path fill="#0ae178" opacity="1.00" d=" M 53.04 31.92 C 52.91 30.23 53.98 28.07 55.95 28.27 C 65.31 28.21 74.67 28.21 84.03 28.27 C 86.03 28.08 86.92 30.26 86.74 31.93 C 86.74 41.04 86.84 50.16 86.70 59.27 C 84.49 65.05 79.45 68.95 74.46 72.25 C 67.98 72.10 61.47 72.52 55.01 72.06 C 52.91 71.35 52.98 68.81 52.98 67.01 C 53.06 55.31 52.93 43.61 53.04 31.92 M 56.93 32.94 C 55.40 34.45 57.09 36.61 58.95 35.97 C 62.33 36.04 65.72 36.16 69.09 35.87 C 70.49 35.19 70.75 33.36 68.98 32.87 C 64.98 32.62 60.93 32.61 56.93 32.94 M 57.00 38.19 L 56.38 39.10 C 56.52 39.57 56.80 40.52 56.94 40.99 C 63.59 41.56 70.31 41.16 76.99 41.22 C 79.03 41.57 80.28 38.77 78.03 38.14 C 71.04 37.91 63.99 37.85 57.00 38.19 M 57.37 43.43 C 55.81 44.72 57.24 46.81 59.04 46.48 C 63.69 46.55 68.34 46.59 72.99 46.44 C 74.86 46.87 75.86 43.72 73.79 43.37 C 68.33 43.15 62.83 43.08 57.37 43.43 Z" />
<path fill="#0ae178" opacity="1.00" d=" M 82.30 88.31 C 83.67 87.96 85.78 88.25 85.80 90.02 C 86.10 92.09 83.57 92.89 82.05 91.97 C 80.45 91.41 80.72 88.72 82.30 88.31 Z" />
<path fill="#0ae178" opacity="1.00" d=" M 67.43 92.97 C 67.60 91.63 67.06 89.48 68.92 89.19 C 72.26 89.16 76.32 88.03 79.25 89.95 C 79.22 90.51 79.16 91.63 79.13 92.20 C 76.66 92.61 74.14 92.55 71.64 92.60 C 71.69 93.39 71.80 94.99 71.85 95.79 C 74.16 95.77 76.47 95.90 78.77 96.21 C 78.75 96.88 78.73 98.23 78.71 98.91 C 76.45 99.19 74.17 99.29 71.89 99.25 C 71.63 101.43 72.30 103.96 70.96 105.86 C 69.77 106.21 67.73 106.16 67.58 104.58 C 67.26 100.72 67.47 96.84 67.43 92.97 Z" />
<path fill="#0ae178" opacity="1.00" d=" M 81.78 93.80 C 82.93 94.25 85.23 93.65 85.40 95.42 C 85.77 98.64 85.79 101.95 85.30 105.16 C 84.32 106.35 81.66 106.54 81.48 104.62 C 80.88 101.04 81.14 97.36 81.78 93.80 Z" />
<path fill="#0ae178" opacity="1.00" d=" M 88.30 95.21 C 90.75 93.17 94.43 93.56 97.10 94.97 C 97.72 98.85 92.76 96.45 90.58 96.81 C 91.93 99.83 97.76 97.81 97.53 101.98 C 97.73 105.47 93.54 106.38 90.84 105.97 C 89.11 105.73 86.25 105.42 87.07 102.93 C 89.39 102.10 91.95 103.10 94.37 102.85 C 92.83 101.19 90.45 101.19 88.47 100.43 C 86.70 99.41 86.76 96.41 88.30 95.21 Z" />
<path fill="#0ae178" opacity="1.00" d=" M 98.22 100.04 C 97.59 94.66 104.97 91.91 108.63 95.16 C 108.58 95.76 108.49 96.95 108.45 97.55 C 106.83 97.51 105.02 96.61 103.51 97.51 C 102.01 98.85 102.22 102.06 104.31 102.67 C 105.64 102.75 106.95 102.40 108.26 102.21 C 108.43 103.04 108.58 103.87 108.69 104.71 C 104.97 107.84 97.88 105.34 98.22 100.04 Z" />
</g>
<g id="#3a3a3aff">
<path fill="#3a3a3a" opacity="1.00" d=" M 74.46 72.25 C 79.45 68.95 84.49 65.05 86.70 59.27 C 86.73 62.51 86.86 65.75 86.73 68.99 C 86.84 70.28 86.04 71.39 85.03 72.08 C 81.52 72.45 77.98 72.18 74.46 72.25 Z" />
</g>
</svg>
